#N canvas 77 524 1010 502 10;
#X obj 293 126 notein;
#X msg 293 156 bang;
#X floatatom 308 243 0 0 0 0 - - -;
#X floatatom 300 266 0 0 0 0 - - -;
#X floatatom 293 289 0 0 0 0 - - -;
#X obj 293 185 time;
#X floatatom 314 215 0 0 0 0 - - -;
#X obj 377 45 bng 15 250 50 0 empty empty empty 0 -6 0 8 -262144 -1
-1;
#X msg 377 96 60;
#X msg 411 96 100;
#X obj 377 64 t b b b;
#X obj 377 122 noteout;
#X msg 444 96 2;
#X msg 476 153 bang;
#X floatatom 491 240 0 0 0 0 - - -;
#X floatatom 483 263 0 0 0 0 - - -;
#X floatatom 476 286 0 0 0 0 - - -;
#X obj 476 182 time;
#X floatatom 499 217 0 0 0 0 - - -;
#X obj 359 260 -;
#X floatatom 359 292 5 0 0 0 - - -;
#X connect 0 0 1 0;
#X connect 1 0 5 0;
#X connect 5 0 4 0;
#X connect 5 1 3 0;
#X connect 5 2 2 0;
#X connect 5 3 6 0;
#X connect 6 0 19 0;
#X connect 7 0 10 0;
#X connect 8 0 11 0;
#X connect 8 0 13 0;
#X connect 9 0 11 1;
#X connect 10 0 8 0;
#X connect 10 1 9 0;
#X connect 10 2 12 0;
#X connect 12 0 11 2;
#X connect 13 0 17 0;
#X connect 17 0 16 0;
#X connect 17 1 15 0;
#X connect 17 2 14 0;
#X connect 17 3 18 0;
#X connect 18 0 19 1;
#X connect 19 0 20 0;
